<svg id="Layer_1" data-name="Layer 1" xmlns="http://www.w3.org/2000/svg" viewBox="0 0 1000 230.99"><defs><style>.cls-1{fill:#059bd2;}.cls-2,.cls-3{fill:#fc6600;}.cls-2{fill-rule:evenodd;}</style></defs><title>Avalara-Logo.RGB</title><path class="cls-1" d="M106.46,171.72S96,158.94,89.89,152l-8.65,20.4c12.43,18.52,20.65,34.45,25.16,42.09,8.82-14.92,30.32-59.27,74.88-100.74l-4.91-11.59c-28.93,21.37-53.56,48.69-69.91,69.53"/><path class="cls-2" d="M551.84,175.93c0,11.87,6.91,18,17.83,19.82v28.91c-32.8-.41-50.32-16.34-50.32-46.4v-168h32.49Z"/><path class="cls-2" d="M653.67,72.8c-40.61,0-72.81,33.36-72.81,75.43s31.05,75.42,69.9,75.42c19.75,0,35.7-7.55,45-18.27l1.73.57v14.79H730v-145h-32.5V85.86l-1.45.58c-9.56-8.14-22.91-13.64-42.35-13.64m4.06,123.6c-24.34,0-44.38-21.18-44.38-48.16,0-27.27,20-48.16,44.38-48.16,16,0,29.9,4.64,39.75,12.19v62.09c-8.41,16-23.48,22.05-39.75,22.05"/><path class="cls-2" d="M757.07,221h32.48V119.51a56.43,56.43,0,0,1,40.92-17.12h7V72.81h-4.07a54.32,54.32,0,0,0-42.07,20l-1.75-.58V75.71H757.07Z"/><path class="cls-2" d="M416.43,72.8c-40.61,0-72.83,33.36-72.83,75.43s31,75.42,69.92,75.42c19.73,0,35.7-7.55,45-18.27l1.74.57v14.79h32.51v-145H460.23V85.86l-1.44.58c-9.57-8.14-22.92-13.64-42.36-13.64m4.05,123.6c-24.38,0-44.39-21.18-44.39-48.16,0-27.27,20-48.16,44.39-48.16,16,0,29.89,4.64,39.74,12.19v62.09c-8.41,16-23.49,22.05-39.74,22.05"/><path class="cls-2" d="M916.4,72.8c-40.61,0-72.81,33.36-72.81,75.43s31,75.42,69.91,75.42c19.73,0,35.69-7.55,45-18.27l1.72.57v14.79h32.51v-145H960.2V85.86l-1.43.58c-9.57-8.14-22.91-13.64-42.36-13.64m4.06,123.6c-24.36,0-44.37-21.18-44.37-48.16,0-27.27,20-48.16,44.37-48.16,16,0,29.89,4.64,39.74,12.19v62.09c-8.41,16-23.48,22.05-39.74,22.05"/><path class="cls-3" d="M171.31,220.56h35.3L175.47,146a332.44,332.44,0,0,0-23.77,28.29Z"/><polygon class="cls-3" points="311.84 75.89 266.51 181.9 266.16 181.9 265.9 181.9 265.71 181.9 265.54 181.9 265.36 181.9 265.1 181.9 264.74 181.9 219.41 75.89 184.41 75.89 249.1 220.54 249.12 220.56 249.48 220.56 281.78 220.56 282.14 220.56 282.15 220.54 346.85 75.89 311.84 75.89"/><path class="cls-3" d="M122,18H90.81L6.17,220.56H41.46l61.2-144.35,2.9-7.83h1.64l2.9,7.83L128.25,119a341.51,341.51,0,0,1,26.11-23.47Z"/></svg>