<svg xmlns="http://www.w3.org/2000/svg" xmlns:xlink="http://www.w3.org/1999/xlink" width="800" height="2000" preserveAspectRatio="xMinYMin meet" viewBox="0 0 800 2000" xmlns:v="https://vecta.io/nano"><style><![CDATA[.B{font-family:Montserrat}.C{font-weight:400}.D{writing-mode:lr-tb}.E{fill:#fff}.F{font-size:14.6667px}.G{font-weight:bold}.H{font-size:14.66px}.I{font-size:21.3333px}.J{font-size:21.33px}.K{fill:#f5fae2}.L{clip-rule:evenodd}.M{fill:#3b4a5b}.N{fill:#364a5a}.O{fill:#000}.P{fill:none}.Q{stroke:#364a5a}.R{stroke-miterlimit:10}.S{text-anchor:middle}.T{font-weight:600}.U{font-size:38.6667px}.V{font-weight:900}.W{font-weight:500}.X{font-size:38.66px}.Y{fill:#ddaf54}.Z{font-size:48.37px}.a{font-family:sans-serif}]]></style><defs><style>@font-face{font-family:Montserrat;src:url('/fonts/montserrat-v14-latin-ext_latin-regular.woff2') format('woff2'), url('/fonts/montserrat-v14-latin-ext_latin-regular.woff') format('woff');font-weight:normal;font-style:normal} @font-face{font-family:Montserrat;src:url('/fonts/montserrat-v14-latin-ext_latin-800.woff2') format('woff2'), url('/fonts/montserrat-v14-latin-ext_latin-800.woff') format('woff');font-weight:bold;font-style:normal} @font-face{font-family:Montserrat;src:url('/fonts/montserrat-v14-latin-ext_latin-regular.woff2') format('woff2'), url('/fonts/montserrat-v14-latin-ext_latin-regular.woff') format('woff');font-weight:normal;font-style:normal} @font-face{font-family:Montserrat;src:url('/fonts/montserrat-v14-latin-ext_latin-800.woff2') format('woff2'), url('/fonts/montserrat-v14-latin-ext_latin-800.woff') format('woff');font-weight:bold;font-style:normal}</style><clipPath id="A"><path d="M0 0h2500v6281.25H0z" class="L"/></clipPath><clipPath id="B"><path d="M0 0h2500v6250H0z" class="L"/></clipPath><clipPath id="C"><path d="M0 0h2500v6250H0z" class="L"/></clipPath><clipPath id="D"><path d="M0 0h2500v6281.25H0z"/></clipPath><clipPath id="E"><path d="M0 0h2500v6250H0z"/></clipPath><clipPath id="F"><path d="M0 0h2500v6250H0z"/></clipPath><clipPath id="G"><path d="M273.47412 1165.5005H1524.2623v385.7853H273.47412z"/></clipPath><clipPath id="H"><path d="M1330.134 1165.5005c106.5317 0 192.8927 86.3609 192.8927 192.8926s-86.361 192.8927-192.8927 192.8927H466.36676c-106.53168 0-192.89264-86.361-192.89264-192.8927s86.36096-192.8926 192.89264-192.8926H1330.134"/></clipPath><clipPath id="I"><path d="M0 0h2500v6281.25H0z"/></clipPath><clipPath id="J"><path d="M0 0h2500v6250H0z"/></clipPath><clipPath id="K"><path d="M0 0h2500v6250H0z"/></clipPath><clipPath id="L"><path d="M273.47412 2081.6592H1524.2623v385.7852H273.47412z"/></clipPath><clipPath id="M"><path d="M1330.134 2081.6592c106.5317 0 192.8927 86.3611 192.8927 192.8926s-86.361 192.8925-192.8927 192.8925H466.36676c-106.53168 0-192.89264-86.3608-192.89264-192.8925s86.36096-192.8926 192.89264-192.8926H1330.134"/></clipPath><clipPath id="N"><path d="M0 0h2500v6281.25H0z"/></clipPath><clipPath id="O"><path d="M0 0h2500v6250H0z"/></clipPath><clipPath id="P"><path d="M0 0h2500v6250H0z"/></clipPath><clipPath id="Q"><path d="M273.47412 2998.6943H1524.2623v385.7852H273.47412z"/></clipPath><clipPath id="R"><path d="M1330.134 2998.6943c106.5317 0 192.8927 86.3611 192.8927 192.8926s-86.361 192.8926-192.8927 192.8926H466.36676c-106.53168 0-192.89264-86.3608-192.89264-192.8926s86.36096-192.8926 192.89264-192.8926H1330.134"/></clipPath><clipPath id="S"><path d="M0 0h2500v6281.25H0z"/></clipPath><clipPath id="T"><path d="M0 0h2500v6250H0z"/></clipPath><clipPath id="U"><path d="M0 0h2500v6250H0z"/></clipPath><clipPath id="V"><path d="M273.47412 3915.7295H1524.2623v385.7852H273.47412z"/></clipPath><clipPath id="W"><path d="M1330.134 3915.7295c106.5317 0 192.8927 86.3611 192.8927 192.8926s-86.361 192.8925-192.8927 192.8925H466.36676c-106.53168 0-192.89264-86.3608-192.89264-192.8925s86.36096-192.8926 192.89264-192.8926H1330.134"/></clipPath><clipPath id="X"><path d="M0 0h2500v6281.25H0z"/></clipPath><clipPath id="Y"><path d="M0 0h2500v6250H0z"/></clipPath><clipPath id="Z"><path d="M0 0h2500v6250H0z"/></clipPath><clipPath id="a"><path d="M273.47412 4832.7646H1524.2623v385.7852H273.47412z"/></clipPath><clipPath id="b"><path d="M1330.134 4832.7646c106.5317 0 192.8927 86.3609 192.8927 192.8926s-86.361 192.8926-192.8927 192.8926H466.36676c-106.53168 0-192.89264-86.3608-192.89264-192.8926s86.36096-192.8926 192.89264-192.8926H1330.134"/></clipPath><clipPath id="c"><path d="M0 0h2500v6281.25H0z"/></clipPath><clipPath id="d"><path d="M0 0h2500v6250H0z"/></clipPath><clipPath id="e"><path d="M0 0h2500v6250H0z"/></clipPath><clipPath id="f"><path d="M962.87433 1624.3419H2213.6627v385.7853H962.87433z"/></clipPath><clipPath id="g"><path d="M2019.5342 1624.3419c106.5317 0 192.8928 86.361 192.8928 192.8927s-86.3611 192.8926-192.8928 192.8926H1155.767c-106.5316 0-192.89267-86.361-192.89267-192.8926s86.36107-192.8927 192.89267-192.8927h863.7672"/></clipPath><clipPath id="h"><path d="M0 0h2500v6281.25H0z"/></clipPath><clipPath id="i"><path d="M0 0h2500v6250H0z"/></clipPath><clipPath id="j"><path d="M0 0h2500v6250H0z"/></clipPath><clipPath id="k"><path d="M962.87433 2539.3193H2213.6627v385.7852H962.87433z"/></clipPath><clipPath id="l"><path d="M2019.5342 2539.3193c106.5317 0 192.8928 86.3611 192.8928 192.8926s-86.3611 192.8926-192.8928 192.8926H1155.767c-106.5316 0-192.89267-86.3608-192.89267-192.8926s86.36107-192.8926 192.89267-192.8926h863.7672"/></clipPath><clipPath id="m"><path d="M0 0h2500v6250H0z" class="L"/></clipPath><clipPath id="n"><path d="M0 0h2500v6281.25H0z"/></clipPath><clipPath id="o"><path d="M0 0h2500v6250H0z"/></clipPath><clipPath id="p"><path d="M0 0h2500v6250H0z"/></clipPath><clipPath id="q"><path d="M962.87433 3459.4795H2213.6627v385.7852H962.87433z"/></clipPath><clipPath id="r"><path d="M2019.5342 3459.4795c106.5317 0 192.8928 86.3611 192.8928 192.8926s-86.3611 192.8925-192.8928 192.8925H1155.767c-106.5316 0-192.89267-86.3608-192.89267-192.8925s86.36107-192.8926 192.89267-192.8926h863.7672"/></clipPath><clipPath id="s"><path d="M0 0h2500v6250H0z" class="L"/></clipPath><clipPath id="t"><path d="M0 0h2500v6281.25H0z"/></clipPath><clipPath id="u"><path d="M0 0h2500v6250H0z"/></clipPath><clipPath id="v"><path d="M0 0h2500v6250H0z"/></clipPath><clipPath id="w"><path d="M962.87433 4376.5146H2213.6627v385.7852H962.87433z"/></clipPath><clipPath id="x"><path d="M2019.5342 4376.5146c106.5317 0 192.8928 86.3609 192.8928 192.8926s-86.3611 192.8926-192.8928 192.8926H1155.767c-106.5316 0-192.89267-86.3608-192.89267-192.8926s86.36107-192.8926 192.89267-192.8926h863.7672"/></clipPath><clipPath id="y"><path d="M0 0h2500v6250H0z" class="L"/></clipPath><clipPath id="z"><path d="M0 0h2500v6281.25H0z"/></clipPath><clipPath id="AA"><path d="M0 0h2500v6250H0z"/></clipPath><clipPath id="AB"><path d="M0 0h2500v6250H0z"/></clipPath><clipPath id="AC"><path d="M953.49933 5283.8291h58.77137v58.7715h-58.77137z"/></clipPath><clipPath id="AD"><path d="M982.88501 5283.8291c-16.22925 0-29.38568 13.1563-29.38568 29.3857s13.15643 29.3858 29.38568 29.3858 29.38569-13.1568 29.38569-29.3858-13.15644-29.3857-29.38569-29.3857"/></clipPath><clipPath id="AE"><path d="M0 0h2500v6281.25H0z"/></clipPath><clipPath id="AF"><path d="M0 0h2500v6250H0z"/></clipPath><clipPath id="AG"><path d="M0 0h2500v6250H0z"/></clipPath><clipPath id="AH"><path d="M1031.0577 702.26245H2281.846v385.78525H1031.0577z"/></clipPath><clipPath id="AI"><path d="M2087.7178 702.26245c106.5315 0 192.8926 86.36096 192.8926 192.89264s-86.3611 192.89261-192.8926 192.89261h-863.7674c-106.5317 0-192.8927-86.3609-192.8927-192.89261s86.361-192.89264 192.8927-192.89264h863.7674"/></clipPath><clipPath id="AJ"><path d="M0 0h2500v6250H0z" class="L"/></clipPath><clipPath id="AK"><path d="M0 0h2500v6250H0z" transform="matrix(.320149 0 0 .32 4.3852468 -136.07004)" class="L"/></clipPath><clipPath id="AL"><path d="M0 0h2500v6250H0z" class="L"/></clipPath><clipPath id="AM"><path d="M0 0h2500v6250H0z" class="L"/></clipPath><clipPath id="AN"><path d="M0 0h2500v6250H0z" class="L"/></clipPath><clipPath id="AO"><path d="M0 0h2500v6250H0z" class="L"/></clipPath><clipPath id="AP"><path d="M0 0h2500v6250H0z" class="L"/></clipPath><clipPath id="AQ"><path d="M0 0h2500v6250H0z" class="L"/></clipPath><clipPath id="AR"><path d="M0 0h2500v6250H0z" class="L"/></clipPath><clipPath id="AS"><path d="M0 0h2500v6281.25H0z"/></clipPath><clipPath id="AT"><path d="M0 0h2500v6250H0z"/></clipPath><clipPath id="AU"><path d="M0 0h2500v6250H0z"/></clipPath><clipPath id="AV"><path d="M953.49933 5283.8291h58.77137v58.7715h-58.77137z"/></clipPath><clipPath id="AW"><path d="M982.88501 5283.8291c-16.22925 0-29.38568 13.1563-29.38568 29.3857s13.15643 29.3858 29.38568 29.3858 29.38569-13.1568 29.38569-29.3858-13.15644-29.3857-29.38569-29.3857"/></clipPath><path id="AX" d="M1157.6723632813 5332.5922851563h625.7438964844v442.8898010254h-625.7438964844z"/><path id="AY" d="M273.47412 1165.5005h1250.78842v385.785344H273.47412z"/><path id="AZ" d="M962.87433 1624.3419h1250.78842v385.785344H962.87433z"/><path id="Aa" d="M0 0h2v2H0m4-2h2v2H4m4-2h2v2H8m4-2h2v2h-2m4-2h2v2h-2m4-2h2v2h-2m4-2h2v2h-2m4-2h2v2h-2m4-2h2v2h-2m4-2h2v2h-2m4-2h2v2h-2m4-2h2v2h-2m4-2h2v2h-2m4-2h2v2h-2m4-2h2v2h-2m4-2h2v2h-2m4-2h2v2h-2m4-2h2v2h-2m4-2h2v2h-2m4-2h2v2h-2m4-2h2v2h-2m4-2h2v2h-2m4-2h2v2h-2m4-2h2v2h-2m4-2h2v2h-2m4-2h2v2h-2m4-2h2v2h-2m4-2h1.84345v2H108"/><path id="Ab" d="M116.34345 1c0 1.6568542-1.34315 3-3 3s-3-1.3431458-3-3 1.34315-3 3-3 3 1.34314573 3 3"/><path id="Ac" d="M102.39645 1c0 1.6568542-1.34314 3-2.999996 3s-3-1.3431458-3-3 1.34314-3 3-3 2.999996 1.34314573 2.999996 3"/><path id="Ad" d="M88.760223 1c0 1.6568542-1.343147 3-3 3s-3-1.3431458-3-3 1.343148-3 3-3 3 1.34314573 3 3"/></defs><g transform="matrix(.32 0 0 .32 0 .000056930664)"><path d="M1195.1374511719 671.8073730469h544.396484375v443.6130371094h-544.396484375z" class="K"/><g clip-path="url(#A)" transform="translate(-18.750001)" class="E"><path d="M0 0h2500v6281.25H0z"/></g><g clip-path="url(#B)" transform="matrix(.993089 0 0 1.000609 -1.4724186 -3.8065232)" class="E"><path d="M0 0h2500v6250H0z"/></g><g clip-path="url(#C)" transform="matrix(1.000972 0 0 1.001217 -.83385181 -4.684898)" class="K"><path d="M0 0h2500v6250H0z"/></g><g class="K"><path d="M1211.5251464844 672.3278198242h251.619354248v393.7360534668h-251.619354248z"/><path d="M595.8026733398 286.2632141113h625.7438964844v442.8898010254H595.8026733398z"/></g><circle cx="1162.005" cy="5554.8838" r="245.30061" class="M"/><g class="K"><path d="M670.8569335938 5392.4555664063h625.7438964844v442.8898010254H670.8569335938z"/><ellipse cx="1163.7244" cy="5553.6992" rx="220.28107" ry="222.19284"/><use xlink:href="#AX"/></g><circle cx="1264.6616" cy="5088.8872" r="245.30061" class="M"/><g class="K"><ellipse cx="1266.381" cy="5087.7026" rx="220.28107" ry="222.19284"/><path d="M651.6815185547 4866.2216796875h625.7438964844v442.8898010254H651.6815185547z"/></g><circle cx="1184.7971" cy="3691.0117" r="245.30061" class="M"/><g class="K"><ellipse cx="1186.5164" cy="3689.8274" rx="220.28107" ry="222.19284"/><use xlink:href="#AX" x="22.7919921875" y="-1863.8720703125"/></g><circle cx="1290.7444" cy="3225.7332" r="245.30061" class="M"/><g class="K"><ellipse cx="1292.4636" cy="3224.5486" rx="220.28107" ry="222.19284"/><path d="M677.7642211914 3003.0676269531h625.7438964844v442.8898010254H677.7642211914z"/></g><circle cx="1196.0812" cy="2759.76" r="245.30061" class="M"/><g class="K"><ellipse cx="1197.8005" cy="2758.5757" rx="220.28107" ry="222.19284"/><use xlink:href="#AX" x="34.076171875" y="-2795.1237792969"/></g><circle cx="1302.0284" cy="2294.4814" r="245.30061" class="M"/><g class="K"><ellipse cx="1303.7478" cy="2293.2969" rx="220.28107" ry="222.19284"/><path d="M689.0484008789 2071.8159179688h625.7438964844v442.8898010254H689.0484008789z"/></g><circle cx="1190.3978" cy="1827.6927" r="245.30061" class="M"/><g class="K"><ellipse cx="1192.1172" cy="1826.5083" rx="220.28107" ry="222.19284"/><use xlink:href="#AX" x="28.3928222656" y="-3727.1911621094"/></g><circle cx="1305.7528" cy="1361.0123" r="245.30061" class="M"/><g class="K"><ellipse cx="1307.4722" cy="1359.8278" rx="220.28107" ry="222.19284"/><path d="M697.1798095703 1139.0219726563h625.7438964844v442.8898010254H697.1798095703z"/></g><g clip-path="url(#D)" transform="translate(-26.188797 .97846991)" class="Y"><g clip-path="url(#E)"><g clip-path="url(#F)"><g clip-path="url(#G)"><g clip-path="url(#H)"><use xlink:href="#AY"/></g></g></g></g></g><g clip-path="url(#I)" transform="translate(-32.024058 15.553884)"><g clip-path="url(#J)"><g clip-path="url(#K)"><g clip-path="url(#L)"><g clip-path="url(#M)"><path d="M273.47412 2081.6592h1250.78842v385.785344H273.47412z" fill="#d67663"/></g></g></g></g></g><g clip-path="url(#N)" transform="translate(-41.977693 31.30586)"><g clip-path="url(#O)"><g clip-path="url(#P)"><g clip-path="url(#Q)"><g clip-path="url(#R)"><path d="M273.47412 2998.6943h1250.78842v385.785344H273.47412z" fill="#c96477"/></g></g></g></g></g><circle cx="1273.5854" cy="4156.8989" r="245.30061" class="M"/><g class="K"><ellipse cx="1275.3048" cy="4155.7144" rx="220.28107" ry="222.19284"/><path d="M660.6053466797 3934.2333984375h625.7438964844v442.8898010254H660.6053466797z"/></g><g clip-path="url(#S)" transform="translate(-65.109338 45.586044)"><g clip-path="url(#T)"><g clip-path="url(#U)"><g clip-path="url(#V)"><g clip-path="url(#W)"><path d="M273.47412 3915.7295h1250.78842v385.785344H273.47412z" fill="#68597c"/></g></g></g></g></g><circle cx="1167.6382" cy="4622.1777" r="245.30061" class="M"/><g clip-path="url(#X)" transform="translate(-70.567761 62.981473)"><g clip-path="url(#Y)"><g clip-path="url(#Z)"><g clip-path="url(#a)"><g clip-path="url(#b)"><path d="M273.47412 4832.7646h1250.78842v385.785344H273.47412z" fill="#517b77"/></g></g></g></g></g><g clip-path="url(#c)" transform="translate(39.942117 9.5319754)"><g clip-path="url(#d)"><g clip-path="url(#e)"><g clip-path="url(#f)"><g clip-path="url(#g)"><use xlink:href="#AZ" fill="#d69152"/></g></g></g></g></g><text xml:space="preserve" transform="matrix(3.125 0 0 3.125 379.44742 4984.5961)" class="B D E J T"><tspan x="0 15.505615 28.451843 39.435867 52.702011 68.186295 81.942993 88.106842 102.71666 111.75983 125.02597" y="0" class="G I">CasePointer</tspan></text><g transform="matrix(3.125 0 0 3.125 382.92234 5002.4324)" class="B D E H"><text xml:space="preserve" transform="translate(0 15)"><tspan x="0 9.805069 19.727386 29.664368 33.504318 44.027542 53.217041 57.159592 67.081909 73.032364 76.872314 86.809296 92.686478 101.33369 111.25601 121.19299 128.35992 132.19987 136.14243 142.09288 149.25981 153.09976 160.26669 170.13039 174.07294 180.02339 188.87579 192.71574 201.90524" font-weight="normal" y="0" class="F">End Point brands its suite of </tspan><tspan y="18.834406" font-weight="normal" x="0" class="F">public health applications as </tspan><tspan y="37.668812" font-weight="normal" x="0" class="F">CasePointer, including EpiTrax, </tspan><tspan y="56.503216" font-weight="normal" x="0" class="F">EMSA, Disease Reporting Portal</tspan></text></g><g clip-path="url(#h)" transform="translate(46.805685 27.261191)"><g clip-path="url(#i)"><g clip-path="url(#j)"><g clip-path="url(#k)"><g clip-path="url(#l)"><path d="M962.87433 2539.3193h1250.78842v385.785344H962.87433z" fill="#a55"/></g></g></g></g></g><g clip-path="url(#m)" transform="translate(-18.750001 25.000001)"><g transform="matrix(-3.11626 0 0 -3.125 918.79138 2738.4619)"><g class="N"><use xlink:href="#Aa"/><use xlink:href="#Ab"/></g><use xlink:href="#Ab" class="P Q R"/></g></g><g clip-path="url(#AL)" transform="translate(-3.1718482 -900.33172)"><g transform="matrix(-3.11626 0 0 -3.125 918.79138 2738.4619)"><g class="N"><use xlink:href="#Aa"/><use xlink:href="#Ab"/></g><use xlink:href="#Ab" class="P Q R"/></g></g><g clip-path="url(#n)" transform="translate(38.863976 38.27613)"><g clip-path="url(#o)"><g clip-path="url(#p)"><g clip-path="url(#q)"><g clip-path="url(#r)"><path d="M962.87433 3459.4795h1250.78842v385.785344H962.87433z" fill="#994154"/></g></g></g></g></g><g clip-path="url(#s)" transform="translate(-6.2500006 37.500001)"><g transform="matrix(-3.113193 0 0 -3.125 904.7220499999999 3658.6223)"><g class="N"><path d="M0 0h2v2H0m4-2h2v2H4m4-2h2v2H8m4-2h2v2h-2m4-2h2v2h-2m4-2h2v2h-2m4-2h2v2h-2m4-2h2v2h-2m4-2h2v2h-2m4-2h2v2h-2m4-2h2v2h-2m4-2h2v2h-2m4-2h2v2h-2m4-2h2v2h-2m4-2h2v2h-2m4-2h2v2h-2m4-2h2v2h-2m4-2h2v2h-2m4-2h2v2h-2m4-2h2v2h-2m4-2h2v2h-2m4-2h2v2h-2m4-2h2v2h-2m4-2h2v2h-2"/><use xlink:href="#Ac"/></g><use xlink:href="#Ac" class="P Q R"/></g></g><g class="K"><ellipse cx="1169.3575" cy="4620.9932" rx="220.28107" ry="222.19284"/><use xlink:href="#AX" x="5.6331787109" y="-932.7060546875"/></g><g clip-path="url(#t)" transform="translate(22.825707 52.622389)"><g clip-path="url(#u)"><g clip-path="url(#v)"><g clip-path="url(#w)"><g clip-path="url(#x)"><path d="M962.87433 4376.5146h1250.78842v385.785344H962.87433z" fill="#015c6b"/></g></g></g></g></g><g clip-path="url(#y)" transform="translate(-12.500001 62.500001)"><g transform="matrix(-3.133705 0 0 -3.125 904.70831 4575.6572)"><g class="N"><path d="M0 5.96e-8h1.9999999V2H0M3.9999998 5.96e-8h1.9999997V2H3.9999998M7.9999995 5.96e-8H9.999999V2H7.9999995M11.999999 5.96e-8h2V2h-2m4-1.9999999404h1.999999V2h-1.999999M19.999998 5.96e-8h2V2h-2m4-1.9999999404h2V2h-2m4-1.9999999404h2V2h-2m4-1.9999999404h1.999998V2h-1.999998M35.999996 5.96e-8h2V2h-2m4-1.9999999404h2V2h-2m4-1.9999999404h2V2h-2m4-1.9999999404h2V2h-2m4-1.9999999404h2V2h-2m4-1.9999999404h2V2h-2m4-1.9999999404h2V2h-2m4-1.9999999404h1.999996V2h-1.999996M67.999992 5.96e-8h2V2h-2m4-1.9999999404h2V2h-2m4-1.9999999404h2V2h-2m4-1.9999999404h2V2h-2"/><use xlink:href="#Ad"/></g><use xlink:href="#Ad" class="P Q R"/></g></g><g clip-path="url(#z)" transform="translate(12.343191 78.575003)" class="N"><g clip-path="url(#AA)"><g clip-path="url(#AB)"><g clip-path="url(#AC)"><g clip-path="url(#AD)"><path d="M953.49933 5283.8291h58.771392v58.771392H953.49933z"/></g></g></g></g></g><text xml:space="preserve" transform="matrix(3.125 0 0 3.125 2082.582471875 1373.9949)" class="B D J O W"><tspan x="0" y="0" class="G I">2008</tspan></text><text xml:space="preserve" transform="matrix(3.125 0 0 3.125 387.6152000000001 1304.8514)" class="B D E H"><tspan font-weight="normal" x="0" y="15" class="F">End Point begins work with the</tspan><tspan y="33.834406" font-weight="normal" x="0" class="F">Collaborative Software Initiative</tspan><tspan y="52.668812" font-weight="normal" x="0" class="F">on Utah’s TriSano deployment</tspan></text><text xml:space="preserve" transform="matrix(3.125 0 0 3.125 397.51879 2210.3853)" class="B D E J T"><tspan x="0 15.548264 33.165359 50.441208" y="0" class="G I">KDHE</tspan></text><g transform="matrix(3.125 0 0 3.125 401.43356 2227.26)" class="B D E H"><text xml:space="preserve" transform="translate(0 15)"><tspan x="0 10.420639 19.067856 28.990173 36.157104 44.804321 51.971252 55.811203 67.917313 76.769714 86.706696 95.353912 101.23109 107.18155 122.73189 131.58429 141.50661 147.45706 151.29701 160.48651 165.455 169.29495 181.21053 190.06293 198.71014 202.65269 208.60315" font-weight="normal" y="0" class="F">Kansas Department of Health </tspan><tspan y="18.333376" font-weight="normal" x="0" class="F">and Environment contracts </tspan><tspan y="36.666752" font-weight="normal" x="0" class="F">with End Point</tspan></text></g><text xml:space="preserve" transform="matrix(3.125 0 0 3.125 403.24786 3141.4769000000006)" class="B D E J T"><tspan x="0" y="0" class="G I">KDHE on EpiTrax</tspan></text><text xml:space="preserve" transform="matrix(3.125 0 0 3.125 404.37565 3179.6945)" class="B D E H"><tspan font-weight="normal" x="0" y="15" class="F">Kansas Department of Health </tspan><tspan y="33.834406" font-weight="normal" x="0" class="F">and Enviroment implements </tspan><tspan y="52.668812" font-weight="normal" x="0" class="F">EpiTrax</tspan></text><text xml:space="preserve" transform="matrix(3.125 0 0 3.125 390.88469000000003 4075.6728)" class="B D E J T"><tspan x="0 17.275848 30.541992 42.869705 55.815933 70.468414" y="0" class="G I">Nevada</tspan></text><text xml:space="preserve" transform="matrix(3.125 0 0 3.125 392.50431 4091.9133000000006)" class="B D E H"><tspan font-weight="normal" x="0" y="15" class="F">Nevada Department of Public </tspan><tspan y="33.834406" font-weight="normal" x="0" class="F">&amp; Behavioral Health contracts </tspan><tspan y="52.668812" font-weight="normal" x="0" class="F">with End Point</tspan></text><text xml:space="preserve" transform="matrix(3.125 0 0 3.125 1383.3998 1759.3181)" class="B D E J T"><tspan x="0 12.839584 21.79744 27.961288 41.37674 54.322968 68.932785 82.689484 88.576065 102.86597 115.08704 129.71819 142.66441 157.27423 171.92671" y="0" class="G I">TriSano Expands</tspan></text><text xml:space="preserve" transform="matrix(3.125 0 0 3.125 1383.3998 1776.1929)" class="B D E H"><tspan font-weight="normal" x="0" y="15" class="F">A few organizations adopt Trisano, </tspan><tspan y="33.834406" font-weight="normal" x="0" class="F">including Kansas Department of </tspan><tspan y="52.668812" font-weight="normal" x="0" class="F">Health and Environment</tspan></text><circle cx="1284.5979" cy="1361.0461" r="114.29424" class="E"/><text xml:space="preserve" transform="matrix(3.125 0 0 3.125 1246.19045 1404.2799)" class="B D V X Y"><tspan x="0" y="0" class="G U">2</tspan></text><circle cx="1277.8304" cy="2293.2" r="114.29424" class="E"/><text xml:space="preserve" transform="matrix(3.125 0 0 3.125 1235.250453125 2339.3867)" fill="#d67663" class="B D V X"><tspan x="0" y="0" class="G U">4</tspan></text><circle cx="1269.5594" cy="3223.7065" r="114.29424" class="E"/><text xml:space="preserve" transform="matrix(3.125 0 0 3.125 1226.683484375 3268.9741000000004)" fill="#c96477" class="B D V Z"><tspan x="0" y="0" class="G U">6</tspan></text><circle cx="1258.7111" cy="4150.0322" r="114.29424" class="E"/><text xml:space="preserve" transform="matrix(3.125 0 0 3.125 1216.95123125 4191.9383)" fill="#68597c" class="B D V Z"><tspan x="0" y="0" class="G U">8</tspan></text><circle cx="1248.5288" cy="5085.4727" r="114.29424" class="E"/><text xml:space="preserve" transform="matrix(3.125 0 0 3.125 1188.04435625 5125.7059)" letter-spacing="-3" fill="#517b77" class="B D V Z"><tspan x="0" y="0" class="G U">10</tspan></text><circle cx="1202.2628" cy="1827.2024" r="114.29424" class="E"/><text xml:space="preserve" transform="matrix(3.125 0 0 3.125 1167.50505 1873.8505999999998)" fill="#d69152" class="B D V X"><tspan x="0" y="0" class="G U">3</tspan></text><text xml:space="preserve" transform="matrix(3.125 0 0 3.125 1377.1498 2662.788)" class="B D E J T"><tspan x="0 14.289902 28.921051 35.0849 47.924484 56.882339 69.828568 82.049637 87.936218 103.91104 118.56352 130.89124 144.15738 158.7672" y="0" class="G I">EpiTrax Advent</tspan></text><text xml:space="preserve" transform="matrix(3.125 0 0 3.125 1376.7077 2679.1246)" class="B D E H"><tspan font-weight="normal" x="0" y="15" class="F">Utah Department of Health </tspan><tspan y="33.834406" font-weight="normal" x="0" class="F">and Human Services writes a </tspan><tspan y="52.668812" font-weight="normal" x="0" class="F">replacement for TriSano, which </tspan><tspan y="71.503216" font-weight="normal" x="0" class="F">becomes EpiTrax</tspan></text><circle cx="1214.6035" cy="2759.2256" r="114.29424" class="E"/><text xml:space="preserve" transform="matrix(3.125 0 0 3.125 1179.48645 2802.7688)" fill="#a55" class="B D V X"><tspan x="0" y="0" class="G U">5</tspan></text><text xml:space="preserve" transform="matrix(3.125 0 0 3.125 252.09534 2780.9614)" class="B D J O"><tspan x="0" y="0" class="G I">2017</tspan></text><text xml:space="preserve" transform="matrix(3.125 0 0 3.125 1359.8654 3609.9906999999994)" class="B D E J T"><tspan x="0 20.368439 26.532288 37.516312 48.500336 62.257034 76.78154 85.739395" y="0" class="G I">Missouri</tspan></text><text xml:space="preserve" transform="matrix(3.125 0 0 3.125 1361.0543 3637.3309)" class="B D E H"><tspan font-weight="normal" x="0" y="15" class="F">Missouri Department of Health &amp; </tspan><tspan y="33.834406" font-weight="normal" x="0" class="F">Human Services contracts with </tspan><tspan y="52.668812" font-weight="normal" x="0" class="F">End Point</tspan></text><circle cx="1202.2471" cy="3687.4878" r="114.29424" class="E"/><text xml:space="preserve" transform="matrix(3.125 0 0 3.125 1164.109421875 3731.9408000000003)" fill="#994154" class="B D G U"><tspan x="0" y="0">7</tspan></text><text xml:space="preserve" transform="matrix(3.125 0 0 3.125 1348.2923 4545.0362)" class="B D E J T"><tspan x="0 15.505615 29.262314 35.426163 49.182861 58.140717 71.086945 85.739426" y="0" class="G I">Colorado</tspan></text><text xml:space="preserve" transform="matrix(3.125 0 0 3.125 1350.6971 4563.2583)" class="B D E H"><tspan font-weight="normal" x="0" y="15" class="F">Colorado Department of Public </tspan><tspan y="33.834406" font-weight="normal" x="0" class="F">Health and Environment hires </tspan><tspan y="52.668812" font-weight="normal" x="0" class="F">End Point</tspan></text><circle cx="1178.7233" cy="4622.915" r="114.29424" class="E"/><text xml:space="preserve" transform="matrix(3.125 0 0 3.125 1142.86993125 4667.3923)" fill="#015c6b" class="B D G U"><tspan x="0" y="0">9</tspan></text><text xml:space="preserve" transform="matrix(3.125 0 0 3.125 252.09534 4589.6162)" class="B D J O W"><tspan x="0" y="0" class="G I">December</tspan><tspan y="27.397747" x="0" class="G I">2022</tspan></text><text xml:space="preserve" x="20" y="23" transform="matrix(3.125 0 0 3.125 2027.7688 2229.1892)" class="B D J O"><tspan x="20" y="23" class="G I">2013</tspan></text><text xml:space="preserve" transform="matrix(3.125 0 0 3.125 2074.74145625 3256.9917)" class="B D J O"><tspan x="0" y="0" class="G I">2019</tspan></text><text xml:space="preserve" x="14.1875" y="0.99999964" transform="matrix(3.125 0 0 3.125 2027.7688 4112.0479)" class="B D J O W"><tspan x="14.1875" y="0.99999964" class="G I">May</tspan><tspan x="14.1875" y="28.397747" class="G I">2022</tspan></text><text xml:space="preserve" transform="matrix(3.125 0 0 3.125 2051.450440625 5122.3237)" class="B D J O"><tspan x="0" y="0" class="G I">2023</tspan></text><text xml:space="preserve" transform="matrix(3.125 0 0 3.125 258.34534 3716.7466000000004)" class="B D J O"><tspan x="0" y="0" class="G I">2020</tspan></text><text xml:space="preserve" transform="matrix(3.125 0 0 3.125 252.09534 1854.7346)" class="B D J O W"><tspan x="0" y="0" class="G I">2011</tspan></text><circle cx="1185.3534" cy="428.75461" r="245.30061" class="M"/><path d="M567.4989013672 484.7295837402h625.7438964844v442.8898010254H567.4989013672z" class="K"/><circle cx="1202.9092" cy="894.77222" r="245.30061" class="M"/><g class="K"><ellipse cx="1492.319" cy="786.70319" transform="matrix(.998109 .06146679 -.10799532 .994151 0 0)" rx="292.53696" ry="243.49762"/><ellipse cx="1187.0728" cy="427.57004" rx="220.28107" ry="222.19284"/><path d="M576.780456543 205.4636230469h625.7438964844v442.8898010254H576.780456543z"/></g><circle cx="1202.7367" cy="888.42676" r="245.30061" class="M"/><g class="K"><ellipse cx="1204.6285" cy="893.58771" rx="220.28107" ry="222.19284"/><ellipse cx="1204.4561" cy="887.24219" rx="220.28107" ry="222.19284"/><use xlink:href="#AX" x="40.9041748046" y="-4660.111694336"/><use xlink:href="#AX" x="40.7316894531" y="-4666.45703125"/><path d="M932.4752197266 124.4706726074h625.7438964844v442.8898010254H932.4752197266z"/></g><circle cx="1305.3933" cy="422.43015" r="245.30061" class="M"/><g class="K"><ellipse cx="1307.1125" cy="421.24557" rx="220.28107" ry="222.19284"/><path d="M692.413269043 199.7646331787h625.7438964844v442.8898010254H692.413269043z"/><use xlink:href="#AX" x="-112.465209961" y="-5215.4798126221"/></g><g clip-path="url(#AS)" transform="translate(498.95131 -4742.684)" class="N"><g clip-path="url(#AT)"><g clip-path="url(#AU)"><g clip-path="url(#AV)"><g clip-path="url(#AW)"><path d="M953.49933 5283.8291h58.771392v58.771392H953.49933z"/></g></g></g></g></g><text xml:space="preserve" transform="matrix(3.125 0 0 3.125 739.8466000000001 339.38563999999997)" font-weight="800" font-size="65.33" class="B D N"><tspan x="0 39.196678 59.056244 119.0926 160.70642 198.2699 218.12946 268.49725" font-size="61.3333" y="0" class="G">TIMELINE</tspan></text><g transform="matrix(3.123543 0 0 3.125 -13.697507000000002 425.21887)" clip-path="url(#AK)" class="P Q R"><path d="M0 2.5h804.38318"/></g><g clip-path="url(#AE)" transform="translate(-11.442948 -5.7989533)"><g clip-path="url(#AF)"><g clip-path="url(#AG)"><g clip-path="url(#AH)"><g clip-path="url(#AI)"><path d="M1031.0577 702.26245h1250.78842v385.785344H1031.0577z" fill="#f1d08e"/></g></g></g></g></g><g clip-path="url(#AJ)" transform="translate(-67.727635 6.2500004)" class="B D E J T"><text xml:space="preserve" transform="matrix(3.125 0 0 3.125 1480.189 800.7561)"><tspan x="0 12.839584 21.79744 27.961288 41.37674 54.322968 68.932785" y="0" class="G I">TriSano</tspan></text></g><g transform="matrix(3.125 0 0 3.125 1461.439 836.3810400000001)" class="B D E H"><text xml:space="preserve" x="-14.000001" y="17"><tspan x="-14.000001 -5.5872812 0.28990138 4.2324524 13.246078 21.893295 31.815613 41.005112 44.845062 53.697464 63.634445 67.576996 77.513977 86.366379 101.91672 105.85927 115.04877 118.99132 128.18082 138.23505 146.17876 150.01871 157.18564 165.12935 172.29628 178.24673 187.09914" y="17" font-weight="normal" class="F">TriSano epidemiology system </tspan><tspan x="-14.000001" y="35.834404" font-weight="normal" class="F">created by the Collaborative </tspan><tspan x="-14.000001" y="54.668812" font-weight="normal" class="F">Software Initiative</tspan></text></g><circle cx="1222.0487" cy="886.74084" r="114.29424" class="E"/><text xml:space="preserve" transform="matrix(3.125 0 0 3.125 1198.577959375 930.38689)" class="B D V X Y"><tspan x="0" y="0" class="G U">1</tspan></text><text xml:space="preserve" transform="matrix(3.125 0 0 3.125 252.09534 913.8817699999998)" class="B D J O W"><tspan x="0" y="0" class="G I">2007</tspan></text><text xml:space="preserve" transform="matrix(3.125 0 0 3.125 387.6152000000001 1281.7264)" class="B D E J T"><tspan x="0 15.484283 28.430511 37.388367 46.431534 61.041351 74.307495 83.26535 94.249374 108.85919 115.02304" y="0" class="G I">Partnership</tspan></text><text xml:space="preserve" x="1285.2756" y="5456.3462" transform="scale(.98406407 1.016194)" font-size="66.6667" letter-spacing="0" word-spacing="0" class="O a"><tspan x="1285.2756" y="5456.3462" font-weight="normal" class="B S">End Point provides a suite of applications known as </tspan><tspan x="1285.2756" y="5525.3013" font-weight="normal" class="B S">CasePointer that processes health care data.</tspan><tspan x="1285.2756" y="5663.2119" font-weight="normal" class="B S">The suite comprises the Disease Reporting Portal,</tspan><tspan x="1285.2756" y="5732.167" font-weight="normal" class="B S">Mirth Connect, Middleware Data Translation, </tspan><tspan x="1285.2756" y="5801.1226" font-weight="normal" class="B S">EMSA (Electronic Message Staging Area), EpiTrax,</tspan><tspan x="1285.2756" y="5870.0776" font-weight="normal" class="B S">and several smaller tools.</tspan><tspan x="1285.2756" y="6007.9878" font-weight="normal" class="B S">We constantly update and improve all </tspan><tspan x="1285.2756" y="6076.9434" font-weight="normal" class="B S">the applications in the suite.</tspan></text><text xml:space="preserve" x="601.92969" y="166.07291" font-size="125" letter-spacing="0" word-spacing="0" class="O a"><tspan x="601.92969" y="166.07291" font-weight="normal" font-size="66.6667" class="B">TRISANO → EPITRAX → CASEPOINTER</tspan></text><g clip-path="url(#AM)" transform="translate(17.730376 -1842.5183)"><g transform="matrix(-3.11626 0 0 -3.125 918.79138 2738.4619)"><g class="N"><use xlink:href="#Aa"/><use xlink:href="#Ab"/></g><use xlink:href="#Ab" class="P Q R"/></g></g><g clip-path="url(#AN)" transform="rotate(180 1246.0692 2045.8462)"><g transform="matrix(-3.11626 0 0 -3.125 918.79138 2738.4619)"><g class="N"><use xlink:href="#Aa"/><use xlink:href="#Ab"/></g><use xlink:href="#Ab" class="P Q R"/></g></g><g clip-path="url(#AO)" transform="rotate(180 1248.8324 2508.2998)"><g transform="matrix(-3.11626 0 0 -3.125 918.79138 2738.4619)"><g class="N"><use xlink:href="#Aa"/><use xlink:href="#Ab"/></g><use xlink:href="#Ab" class="P Q R"/></g></g><g clip-path="url(#AP)" transform="rotate(180 1246.4788 2985.0283)"><g transform="matrix(-3.11626 0 0 -3.125 918.79138 2738.4619)"><g class="N"><use xlink:href="#Aa"/><use xlink:href="#Ab"/></g><use xlink:href="#Ab" class="P Q R"/></g></g><g clip-path="url(#AQ)" transform="rotate(180 1245.4767 3440.9061)"><g transform="matrix(-3.11626 0 0 -3.125 918.79138 2738.4619)"><g class="N"><use xlink:href="#Aa"/><use xlink:href="#Ab"/></g><use xlink:href="#Ab" class="P Q R"/></g></g><g clip-path="url(#AR)" transform="rotate(180 1242.5369 3920.1603)"><g transform="matrix(-3.11626 0 0 -3.125 918.79138 2738.4619)"><g class="N"><use xlink:href="#Aa"/><use xlink:href="#Ab"/></g><use xlink:href="#Ab" class="P Q R"/></g></g></g></svg>
