<?xml version="1.0" encoding="UTF-8" standalone="no"?>
<!-- Generator: Adobe Illustrator 23.0.1, SVG Export Plug-In . SVG Version: 6.00 Build 0)  -->

<svg
   xmlns:dc="http://purl.org/dc/elements/1.1/"
   xmlns:cc="http://creativecommons.org/ns#"
   xmlns:rdf="http://www.w3.org/1999/02/22-rdf-syntax-ns#"
   xmlns:svg="http://www.w3.org/2000/svg"
   xmlns="http://www.w3.org/2000/svg"
   xmlns:sodipodi="http://sodipodi.sourceforge.net/DTD/sodipodi-0.dtd"
   xmlns:inkscape="http://www.inkscape.org/namespaces/inkscape"
   version="1.1"
   id="Layer_1"
   x="0px"
   y="0px"
   viewBox="0 0 537.97101 176.582"
   xml:space="preserve"
   sodipodi:docname="LFNW color horizontal - Final.svg"
   width="537.97101"
   height="176.582"
   inkscape:version="0.92.3 (unknown)"><metadata
   id="metadata125"><rdf:RDF><cc:Work
       rdf:about=""><dc:format>image/svg+xml</dc:format><dc:type
         rdf:resource="http://purl.org/dc/dcmitype/StillImage" /><dc:title></dc:title></cc:Work></rdf:RDF></metadata><defs
   id="defs123" /><sodipodi:namedview
   pagecolor="#ffffff"
   bordercolor="#666666"
   borderopacity="1"
   objecttolerance="10"
   gridtolerance="10"
   guidetolerance="10"
   inkscape:pageopacity="0"
   inkscape:pageshadow="2"
   inkscape:window-width="1920"
   inkscape:window-height="2088"
   id="namedview121"
   showgrid="false"
   fit-margin-top="0"
   fit-margin-left="0"
   fit-margin-right="0"
   fit-margin-bottom="0"
   inkscape:zoom="1.6856283"
   inkscape:cx="323.39117"
   inkscape:cy="-42.824404"
   inkscape:window-x="3840"
   inkscape:window-y="35"
   inkscape:window-maximized="0"
   inkscape:current-layer="Layer_1" />
<style
   type="text/css"
   id="style2">
	.st0{fill:#3E7F9E;stroke:#000000;stroke-width:2.622;stroke-miterlimit:10;}
	.st1{fill:none;stroke:#304858;stroke-width:2.0976;stroke-miterlimit:10;}
	.st2{fill:#304858;}
	.st3{fill:#77954A;}
	.st4{fill:#FFFFFF;stroke:#000000;stroke-width:0.4031;stroke-miterlimit:10;}
	.st5{fill:none;stroke:#000000;stroke-width:0.9572;stroke-miterlimit:10;}
	.st6{fill:#FFFFFF;}
	.st7{stroke:#3E7F9E;stroke-width:1.9144;stroke-miterlimit:10;}
	.st8{stroke:#000000;stroke-width:0.9999;stroke-miterlimit:10;}
	.st9{fill:#E9B547;stroke:#000000;stroke-width:0.8915;stroke-miterlimit:10;}
	.st10{fill:none;stroke:#000000;stroke-width:1.5732;stroke-miterlimit:10;}
	.st11{fill:#E9B547;}
</style>
<g
   id="g44"
   transform="translate(-39.689,-313.81898)">
	<g
   id="g22">
		<path
   d="m 267.59,378.42 v 7.64 h -30.71 v -48.58 h 8.83 v 40.94 z"
   id="path4"
   inkscape:connector-curvature="0" />
		<path
   d="m 283.36,338.67 c 0,1.59 -0.52,2.85 -1.54,3.79 -1.03,0.94 -2.24,1.4 -3.65,1.4 -1.45,0 -2.69,-0.47 -3.72,-1.4 -1.03,-0.93 -1.54,-2.2 -1.54,-3.79 0,-1.64 0.51,-2.92 1.54,-3.86 1.03,-0.93 2.27,-1.4 3.72,-1.4 1.4,0 2.62,0.47 3.65,1.4 1.03,0.94 1.54,2.22 1.54,3.86 z m -0.91,47.39 h -8.48 v -36.67 h 8.48 z"
   id="path6"
   inkscape:connector-curvature="0" />
		<path
   d="m 293.25,350.59 c 1.64,-0.47 3.76,-0.91 6.38,-1.33 2.62,-0.42 5.51,-0.63 8.69,-0.63 2.99,0 5.49,0.41 7.5,1.23 2.01,0.82 3.61,1.96 4.8,3.44 1.19,1.47 2.03,3.25 2.52,5.33 0.49,2.08 0.74,4.36 0.74,6.84 v 20.61 H 315.4 V 366.8 c 0,-1.96 -0.13,-3.63 -0.38,-5.01 -0.26,-1.38 -0.68,-2.5 -1.26,-3.37 -0.59,-0.86 -1.38,-1.5 -2.38,-1.89 -1,-0.4 -2.23,-0.6 -3.68,-0.6 -1.08,0 -2.2,0.07 -3.37,0.21 -1.17,0.14 -2.03,0.26 -2.59,0.35 v 29.58 h -8.48 v -35.48 z"
   id="path8"
   inkscape:connector-curvature="0" />
		<path
   d="m 364.34,384.94 c -1.64,0.42 -3.76,0.85 -6.38,1.3 -2.62,0.44 -5.49,0.67 -8.62,0.67 -2.95,0 -5.41,-0.42 -7.4,-1.26 -1.99,-0.84 -3.58,-2.01 -4.77,-3.51 -1.19,-1.5 -2.04,-3.28 -2.56,-5.36 -0.51,-2.08 -0.77,-4.36 -0.77,-6.84 V 349.4 h 8.48 v 19.21 c 0,3.93 0.57,6.73 1.72,8.41 1.15,1.68 3.14,2.52 5.99,2.52 1.03,0 2.11,-0.05 3.26,-0.14 1.14,-0.09 2,-0.21 2.56,-0.35 v -29.66 h 8.48 v 35.55 z"
   id="path10"
   inkscape:connector-curvature="0" />
		<path
   d="m 388.3,360.62 7.79,-11.23 h 8.9 l -12.31,17.56 c 2.57,3.23 5.04,6.49 7.4,9.79 2.36,3.3 4.3,6.4 5.83,9.31 h -9.24 c -0.43,-0.86 -0.98,-1.8 -1.65,-2.83 -0.67,-1.03 -1.39,-2.1 -2.16,-3.22 -0.77,-1.11 -1.57,-2.22 -2.4,-3.31 -0.84,-1.09 -1.65,-2.12 -2.44,-3.09 -1.64,1.91 -3.25,4.01 -4.82,6.32 -1.57,2.31 -2.87,4.35 -3.91,6.13 h -8.65 c 0.69,-1.41 1.54,-2.89 2.55,-4.45 1.01,-1.56 2.09,-3.15 3.25,-4.78 1.15,-1.63 2.34,-3.25 3.57,-4.88 1.23,-1.63 2.44,-3.17 3.64,-4.64 L 371.2,349.38 h 9.32 z"
   id="path12"
   inkscape:connector-curvature="0" />
		<path
   d="m 412.64,386.06 v -48.58 h 30.71 v 7.5 h -21.87 v 12.41 h 19.42 v 7.5 h -19.42 v 21.17 z"
   id="path14"
   inkscape:connector-curvature="0" />
		<path
   d="m 447.97,367.9 c 0,-3.23 0.48,-6.05 1.44,-8.48 0.96,-2.43 2.23,-4.45 3.82,-6.06 1.59,-1.61 3.41,-2.83 5.47,-3.65 2.06,-0.82 4.16,-1.23 6.31,-1.23 5.05,0 8.98,1.57 11.81,4.7 2.83,3.13 4.24,7.81 4.24,14.02 0,0.47 -0.01,0.99 -0.04,1.58 -0.02,0.58 -0.06,1.11 -0.11,1.58 h -24.19 c 0.23,2.94 1.27,5.22 3.12,6.84 1.85,1.61 4.52,2.42 8.03,2.42 2.06,0 3.94,-0.19 5.64,-0.56 1.71,-0.37 3.05,-0.77 4.03,-1.19 l 1.12,6.94 c -0.47,0.23 -1.11,0.48 -1.93,0.74 -0.82,0.26 -1.75,0.49 -2.8,0.7 -1.05,0.21 -2.19,0.39 -3.4,0.53 -1.22,0.14 -2.45,0.21 -3.72,0.21 -3.22,0 -6.03,-0.48 -8.41,-1.44 -2.38,-0.96 -4.35,-2.29 -5.89,-4 -1.54,-1.71 -2.69,-3.72 -3.43,-6.03 -0.74,-2.32 -1.11,-4.86 -1.11,-7.62 z m 24.61,-3.78 c 0,-1.17 -0.16,-2.28 -0.49,-3.33 -0.33,-1.05 -0.81,-1.96 -1.44,-2.73 -0.63,-0.77 -1.4,-1.38 -2.31,-1.82 -0.91,-0.44 -2,-0.67 -3.26,-0.67 -1.31,0 -2.45,0.25 -3.44,0.74 -0.99,0.49 -1.81,1.13 -2.49,1.93 -0.68,0.8 -1.2,1.71 -1.58,2.73 -0.38,1.03 -0.63,2.08 -0.77,3.15 z"
   id="path16"
   inkscape:connector-curvature="0" />
		<path
   d="m 499.22,379.96 c 2.24,0 3.88,-0.27 4.91,-0.81 1.03,-0.54 1.54,-1.46 1.54,-2.77 0,-1.21 -0.55,-2.22 -1.65,-3.01 -1.1,-0.79 -2.91,-1.66 -5.43,-2.59 -1.54,-0.56 -2.96,-1.16 -4.24,-1.79 -1.29,-0.63 -2.4,-1.37 -3.33,-2.21 -0.94,-0.84 -1.67,-1.86 -2.21,-3.05 -0.54,-1.19 -0.81,-2.65 -0.81,-4.38 0,-3.37 1.24,-6.02 3.72,-7.96 2.48,-1.94 5.84,-2.91 10.09,-2.91 2.15,0 4.21,0.2 6.17,0.6 1.96,0.4 3.44,0.78 4.42,1.16 l -1.54,6.87 c -0.94,-0.42 -2.13,-0.81 -3.58,-1.16 -1.45,-0.35 -3.13,-0.53 -5.05,-0.53 -1.73,0 -3.13,0.29 -4.21,0.88 -1.08,0.58 -1.61,1.48 -1.61,2.7 0,0.61 0.1,1.15 0.32,1.61 0.21,0.47 0.57,0.9 1.09,1.3 0.51,0.4 1.19,0.8 2.03,1.19 0.84,0.4 1.87,0.81 3.08,1.23 2.01,0.75 3.72,1.48 5.12,2.21 1.4,0.73 2.56,1.54 3.47,2.45 0.91,0.91 1.58,1.95 2,3.12 0.42,1.17 0.63,2.57 0.63,4.21 0,3.51 -1.3,6.16 -3.89,7.96 -2.59,1.8 -6.3,2.7 -11.11,2.7 -3.22,0 -5.82,-0.27 -7.78,-0.81 -1.96,-0.54 -3.34,-0.97 -4.14,-1.3 l 1.47,-7.08 c 1.26,0.51 2.77,1.01 4.52,1.47 1.76,0.47 3.76,0.7 6,0.7 z"
   id="path18"
   inkscape:connector-curvature="0" />
		<path
   d="m 521.65,339.72 8.48,-1.4 v 11.08 h 13.04 v 7.08 h -13.04 v 14.93 c 0,2.94 0.47,5.05 1.4,6.31 0.93,1.26 2.52,1.89 4.77,1.89 1.54,0 2.91,-0.16 4.1,-0.49 1.19,-0.33 2.14,-0.63 2.84,-0.91 l 1.4,6.73 c -0.98,0.42 -2.27,0.85 -3.86,1.3 -1.59,0.44 -3.46,0.67 -5.61,0.67 -2.62,0 -4.8,-0.35 -6.55,-1.05 -1.75,-0.7 -3.14,-1.72 -4.17,-3.05 -1.03,-1.33 -1.75,-2.94 -2.17,-4.84 -0.42,-1.89 -0.63,-4.05 -0.63,-6.48 z"
   id="path20"
   inkscape:connector-curvature="0" />
	</g>
	<g
   id="g42">
		<path
   d="m 270.11,446.49 c -1.59,-2.66 -3.37,-5.53 -5.33,-8.59 -1.96,-3.06 -4,-6.15 -6.1,-9.25 -2.1,-3.11 -4.24,-6.12 -6.41,-9.04 -2.17,-2.92 -4.24,-5.55 -6.2,-7.89 v 34.77 h -8.69 v -48.58 h 7.22 c 1.87,1.96 3.88,4.29 6.03,6.98 2.15,2.69 4.31,5.48 6.48,8.38 2.17,2.9 4.28,5.81 6.31,8.73 2.03,2.92 3.84,5.64 5.43,8.17 v -32.25 h 8.76 v 48.58 h -7.5 z"
   id="path24"
   inkscape:connector-curvature="0" />
		<path
   d="m 321.99,428.13 c 0,2.9 -0.42,5.54 -1.26,7.92 -0.84,2.38 -2.03,4.42 -3.57,6.1 -1.54,1.68 -3.4,2.99 -5.57,3.93 -2.17,0.94 -4.57,1.4 -7.19,1.4 -2.62,0 -5,-0.47 -7.15,-1.4 -2.15,-0.93 -4,-2.24 -5.54,-3.93 -1.54,-1.68 -2.75,-3.72 -3.61,-6.1 -0.87,-2.38 -1.3,-5.02 -1.3,-7.92 0,-2.9 0.43,-5.53 1.3,-7.89 0.86,-2.36 2.08,-4.38 3.65,-6.06 1.57,-1.68 3.42,-2.98 5.57,-3.89 2.15,-0.91 4.51,-1.37 7.08,-1.37 2.57,0 4.94,0.46 7.12,1.37 2.17,0.91 4.03,2.21 5.57,3.89 1.54,1.68 2.74,3.71 3.61,6.06 0.86,2.36 1.29,4.99 1.29,7.89 z m -8.7,0 c 0,-3.65 -0.78,-6.53 -2.35,-8.66 -1.57,-2.13 -3.75,-3.19 -6.56,-3.19 -2.81,0 -4.99,1.06 -6.55,3.19 -1.57,2.13 -2.35,5.01 -2.35,8.66 0,3.69 0.78,6.61 2.35,8.76 1.56,2.15 3.75,3.22 6.55,3.22 2.8,0 4.99,-1.07 6.56,-3.22 1.57,-2.15 2.35,-5.07 2.35,-8.76 z"
   id="path26"
   inkscape:connector-curvature="0" />
		<path
   d="m 351.64,417.47 c -0.7,-0.23 -1.67,-0.48 -2.91,-0.74 -1.24,-0.26 -2.68,-0.39 -4.31,-0.39 -0.94,0 -1.93,0.09 -2.98,0.28 -1.05,0.19 -1.79,0.35 -2.21,0.49 v 29.38 h -8.48 v -34.91 c 1.64,-0.61 3.68,-1.18 6.13,-1.72 2.45,-0.54 5.18,-0.81 8.17,-0.81 0.56,0 1.21,0.04 1.96,0.11 0.75,0.07 1.5,0.16 2.24,0.28 0.75,0.12 1.47,0.26 2.17,0.42 0.7,0.16 1.26,0.32 1.68,0.46 z"
   id="path28"
   inkscape:connector-curvature="0" />
		<path
   d="m 358.58,400.15 8.48,-1.4 v 11.08 h 13.04 v 7.08 h -13.04 v 14.93 c 0,2.94 0.47,5.05 1.4,6.31 0.93,1.26 2.52,1.89 4.77,1.89 1.54,0 2.91,-0.16 4.1,-0.49 1.19,-0.33 2.14,-0.63 2.84,-0.91 l 1.4,6.73 c -0.98,0.42 -2.27,0.85 -3.86,1.3 -1.59,0.44 -3.46,0.67 -5.61,0.67 -2.62,0 -4.8,-0.35 -6.55,-1.05 -1.75,-0.7 -3.14,-1.72 -4.17,-3.05 -1.03,-1.33 -1.75,-2.94 -2.17,-4.84 -0.42,-1.89 -0.63,-4.05 -0.63,-6.48 z"
   id="path30"
   inkscape:connector-curvature="0" />
		<path
   d="m 388.31,446.49 v -53 l 8.48,-1.4 v 18.16 c 0.93,-0.33 2.02,-0.61 3.26,-0.84 1.24,-0.23 2.46,-0.35 3.68,-0.35 2.94,0 5.39,0.41 7.33,1.23 1.94,0.82 3.49,1.96 4.66,3.43 1.17,1.47 2,3.24 2.49,5.29 0.49,2.06 0.74,4.35 0.74,6.87 v 20.61 h -8.48 v -19.28 c 0,-1.96 -0.13,-3.63 -0.39,-5.01 -0.26,-1.38 -0.68,-2.5 -1.26,-3.37 -0.58,-0.86 -1.37,-1.5 -2.35,-1.89 -0.98,-0.4 -2.2,-0.6 -3.65,-0.6 -1.12,0 -2.27,0.12 -3.43,0.35 -1.17,0.23 -2.03,0.45 -2.59,0.63 v 29.16 h -8.49 z"
   id="path32"
   inkscape:connector-curvature="0" />
		<path
   d="m 450.25,423.43 c -1.07,4.11 -2.23,8.12 -3.47,12.02 -1.24,3.9 -2.46,7.58 -3.68,11.04 h -6.96 c -0.94,-2.15 -1.92,-4.6 -2.95,-7.36 -1.03,-2.76 -2.06,-5.7 -3.09,-8.83 -1.03,-3.13 -2.06,-6.43 -3.09,-9.89 -1.03,-3.46 -2.04,-6.99 -3.02,-10.59 h 8.98 c 0.42,1.96 0.92,4.08 1.48,6.34 0.56,2.27 1.15,4.58 1.76,6.94 0.61,2.36 1.25,4.66 1.9,6.91 0.66,2.24 1.32,4.3 1.97,6.17 0.7,-2.15 1.39,-4.37 2.07,-6.66 0.68,-2.29 1.32,-4.58 1.93,-6.87 0.61,-2.29 1.18,-4.52 1.72,-6.7 0.54,-2.17 1.02,-4.22 1.44,-6.13 h 6.52 c 0.42,1.92 0.89,3.96 1.4,6.13 0.51,2.17 1.06,4.41 1.64,6.7 0.58,2.29 1.21,4.58 1.89,6.87 0.68,2.29 1.36,4.51 2.06,6.66 0.61,-1.87 1.24,-3.93 1.9,-6.17 0.66,-2.24 1.3,-4.54 1.94,-6.91 0.63,-2.36 1.23,-4.67 1.8,-6.94 0.56,-2.27 1.06,-4.38 1.48,-6.34 h 8.77 c -0.98,3.6 -1.99,7.13 -3.02,10.59 -1.03,3.46 -2.06,6.75 -3.09,9.89 -1.03,3.13 -2.06,6.08 -3.09,8.83 -1.03,2.76 -2.04,5.21 -3.02,7.36 h -6.9 c -1.21,-3.46 -2.46,-7.14 -3.75,-11.04 -1.27,-3.9 -2.45,-7.91 -3.52,-12.02 z"
   id="path34"
   inkscape:connector-curvature="0" />
		<path
   d="m 480.99,428.34 c 0,-3.22 0.48,-6.05 1.44,-8.48 0.96,-2.43 2.23,-4.45 3.82,-6.06 1.59,-1.61 3.41,-2.83 5.47,-3.65 2.06,-0.82 4.16,-1.23 6.31,-1.23 5.05,0 8.98,1.57 11.81,4.7 2.83,3.13 4.24,7.81 4.24,14.02 0,0.47 -0.01,0.99 -0.04,1.58 -0.02,0.58 -0.06,1.11 -0.11,1.58 h -24.19 c 0.23,2.94 1.27,5.22 3.12,6.84 1.85,1.61 4.52,2.42 8.03,2.42 2.06,0 3.94,-0.19 5.64,-0.56 1.71,-0.37 3.05,-0.77 4.03,-1.19 l 1.12,6.94 c -0.47,0.23 -1.11,0.48 -1.93,0.74 -0.82,0.26 -1.75,0.49 -2.8,0.7 -1.05,0.21 -2.19,0.39 -3.4,0.53 -1.22,0.14 -2.45,0.21 -3.72,0.21 -3.22,0 -6.03,-0.48 -8.41,-1.44 -2.38,-0.96 -4.35,-2.29 -5.89,-4 -1.54,-1.71 -2.69,-3.72 -3.43,-6.03 -0.74,-2.33 -1.11,-4.87 -1.11,-7.62 z m 24.61,-3.79 c 0,-1.17 -0.16,-2.28 -0.49,-3.33 -0.33,-1.05 -0.81,-1.96 -1.44,-2.73 -0.63,-0.77 -1.4,-1.38 -2.31,-1.82 -0.91,-0.44 -2,-0.67 -3.26,-0.67 -1.31,0 -2.45,0.25 -3.44,0.74 -0.98,0.49 -1.81,1.13 -2.49,1.93 -0.68,0.8 -1.2,1.71 -1.58,2.73 -0.38,1.03 -0.63,2.08 -0.77,3.16 h 15.78 z"
   id="path36"
   inkscape:connector-curvature="0" />
		<path
   d="m 532.24,440.39 c 2.24,0 3.88,-0.27 4.91,-0.81 1.03,-0.54 1.54,-1.46 1.54,-2.77 0,-1.21 -0.55,-2.22 -1.65,-3.01 -1.1,-0.79 -2.91,-1.66 -5.43,-2.59 -1.54,-0.56 -2.96,-1.16 -4.24,-1.79 -1.29,-0.63 -2.4,-1.37 -3.33,-2.21 -0.94,-0.84 -1.67,-1.86 -2.21,-3.05 -0.54,-1.19 -0.81,-2.65 -0.81,-4.38 0,-3.37 1.24,-6.02 3.72,-7.96 2.48,-1.94 5.84,-2.91 10.09,-2.91 2.15,0 4.21,0.2 6.17,0.6 1.96,0.4 3.44,0.78 4.42,1.16 l -1.54,6.87 c -0.94,-0.42 -2.13,-0.81 -3.58,-1.16 -1.45,-0.35 -3.13,-0.53 -5.05,-0.53 -1.73,0 -3.13,0.29 -4.21,0.88 -1.08,0.58 -1.61,1.48 -1.61,2.7 0,0.61 0.1,1.15 0.32,1.61 0.21,0.47 0.57,0.9 1.09,1.3 0.51,0.4 1.19,0.8 2.03,1.19 0.84,0.4 1.87,0.81 3.08,1.23 2.01,0.75 3.72,1.48 5.12,2.21 1.4,0.73 2.56,1.54 3.47,2.45 0.91,0.91 1.58,1.95 2,3.12 0.42,1.17 0.63,2.57 0.63,4.21 0,3.51 -1.3,6.16 -3.89,7.96 -2.59,1.8 -6.3,2.7 -11.11,2.7 -3.22,0 -5.82,-0.27 -7.78,-0.81 -1.96,-0.54 -3.34,-0.97 -4.14,-1.3 l 1.47,-7.08 c 1.26,0.51 2.77,1.01 4.52,1.47 1.76,0.47 3.76,0.7 6,0.7 z"
   id="path38"
   inkscape:connector-curvature="0" />
		<path
   d="m 554.67,400.15 8.48,-1.4 v 11.08 h 13.04 v 7.08 h -13.04 v 14.93 c 0,2.94 0.47,5.05 1.4,6.31 0.93,1.26 2.52,1.89 4.77,1.89 1.54,0 2.91,-0.16 4.1,-0.49 1.19,-0.33 2.14,-0.63 2.84,-0.91 l 1.4,6.73 c -0.98,0.42 -2.27,0.85 -3.86,1.3 -1.59,0.44 -3.46,0.67 -5.61,0.67 -2.62,0 -4.8,-0.35 -6.55,-1.05 -1.75,-0.7 -3.14,-1.72 -4.17,-3.05 -1.03,-1.33 -1.75,-2.94 -2.17,-4.84 -0.42,-1.89 -0.63,-4.05 -0.63,-6.48 z"
   id="path40"
   inkscape:connector-curvature="0" />
	</g>
</g>
<circle
   class="st0"
   cx="88.291"
   cy="88.291"
   r="86.980003"
   id="circle46"
   style="fill:#3e7f9e;stroke:#000000;stroke-width:2.62199998;stroke-miterlimit:10" />
<g
   id="g60"
   transform="translate(-39.689,-313.81898)">
	<path
   class="st1"
   d="m 45.32,404.28 c 3.19,-0.45 7.1,-0.06 11.01,2.68 9.12,6.38 21.89,0 21.89,0 0,0 10.37,-7.33 23.14,0 0,0 9.58,6.83 22.34,-0.21 0,0 9.12,-8.78 24.17,0.07 0,0 12.85,6.28 25.35,-0.42 12.5,-6.7 16.12,-5.61 24.34,0 3.7,2.53 7.77,4.28 11.83,4.73"
   id="path48"
   inkscape:connector-curvature="0"
   style="fill:none;stroke:#304858;stroke-width:2.09759998;stroke-miterlimit:10" />
	<path
   class="st1"
   d="m 46.55,413.62 c 2.94,-0.19 6.36,0.41 9.78,2.81 9.12,6.38 21.89,0 21.89,0 0,0 10.37,-7.33 23.14,0 0,0 9.58,6.83 22.34,-0.21 0,0 9.12,-8.78 24.17,0.07 0,0 12.85,6.28 25.35,-0.42 12.5,-6.7 16.12,-5.61 24.34,0 3.43,2.34 7.16,4.02 10.92,4.6"
   id="path50"
   inkscape:connector-curvature="0"
   style="fill:none;stroke:#304858;stroke-width:2.09759998;stroke-miterlimit:10" />
	<path
   class="st1"
   d="m 48.06,422.53 c 2.57,0.09 5.42,0.83 8.27,2.83 9.12,6.38 21.89,0 21.89,0 0,0 10.37,-7.33 23.14,0 0,0 9.58,6.83 22.34,-0.21 0,0 9.12,-8.78 24.17,0.07 0,0 12.85,6.28 25.35,-0.42 12.5,-6.7 16.12,-5.61 24.34,0 2.67,1.82 5.52,3.24 8.43,4.06"
   id="path52"
   inkscape:connector-curvature="0"
   style="fill:none;stroke:#304858;stroke-width:2.09759998;stroke-miterlimit:10" />
	<path
   class="st1"
   d="m 50.72,430.95 c 1.81,0.4 3.71,1.17 5.61,2.5 9.12,6.38 21.89,0 21.89,0 0,0 10.37,-7.33 23.14,0 0,0 9.58,6.83 22.34,-0.21 0,0 9.12,-8.78 24.17,0.07 0,0 12.85,6.28 25.35,-0.42 12.5,-6.7 16.12,-5.61 24.34,0 1.74,1.18 3.55,2.2 5.41,2.99"
   id="path54"
   inkscape:connector-curvature="0"
   style="fill:none;stroke:#304858;stroke-width:2.09759998;stroke-miterlimit:10" />
	<path
   class="st1"
   d="m 53.95,439.5 c 0.92,0.41 1.84,0.92 2.77,1.57 9.12,6.38 21.89,0 21.89,0 0,0 10.37,-7.33 23.14,0 0,0 9.58,6.83 22.34,-0.21 0,0 9.12,-8.78 24.17,0.07 0,0 12.85,6.28 25.35,-0.42 12.5,-6.7 16.12,-5.61 24.34,0 0.7,0.47 1.4,0.92 2.12,1.34"
   id="path56"
   inkscape:connector-curvature="0"
   style="fill:none;stroke:#304858;stroke-width:2.09759998;stroke-miterlimit:10" />
	<path
   class="st1"
   d="m 61.85,452.22 c 5.04,1.54 9.76,-0.03 14.48,-1.61 6.82,-3.15 14.16,-6.29 20.98,-2.62 2.1,1.05 4.72,1.57 7.34,3.15 l 0.52,1.05 c 4.2,0.52 7.87,1.57 12.06,0 6.82,-1.57 12.06,-7.87 19.93,-6.29 7.34,1.57 13.11,5.24 20.45,6.29 7.34,1.05 14.16,-2.1 20.45,-5.24 5.77,-3.67 13.11,-2.62 18.58,1.6"
   id="path58"
   inkscape:connector-curvature="0"
   style="fill:none;stroke:#304858;stroke-width:2.09759998;stroke-miterlimit:10" />
</g>
<path
   class="st2"
   d="m 112.881,48.351018 c 0,0 9.95,-4.56 11.67,-7.75 1.72,-3.19 4.45,-5.93 4.45,-5.93 l 5.02,2.74 6.38,-2.74 16.78,19.95 c 0,0 5.72,0.65 6.1,-1.9 0.38,-2.55 9.28,17.78 5.51,19.7 -3.76,1.92 -27.49,0 -27.49,0 h -5.91 l -4.46,-1.18 z"
   id="path62"
   inkscape:connector-curvature="0"
   style="fill:#304858" />
<path
   class="st2"
   d="m 130.931,71.251018 c -18.05,0 -38.38,0.88 -59.74,1.37 -20,0.46 -41.51,-0.74 -57.81,-0.74 0,0 21.06,-25.9 24.44,-29.55 2.34,-2.53 3.88,-7.12 7.18,-8.6 0.5,1.34 1.46,2.72 3.07,3.18 2.39,-4.23 6.52,-7.6 8.63,-11.84 1,-2 1.71,-4.09 2.89,-6.14 1.24,-2.17 2.42,-2.35 3.81,-3.76 4.27,-4.32 5.85,-4.18 9.9,0.58 0.75,0.88 2.39,3.66 3.58,4.09 3.09,1.13 3.2,-0.98 5.48,1.23 0.81,0.79 1.04,2.87 2.02,3.92 0.81,0.87 2.02,1.23 3.04,2.07 1.74,1.43 3.48,3.12 3.92,5.14 2.25,-1.22 3.95,-3.07 5.83,-4.78 6.91,4.87 33.76,43.83 33.76,43.83 z"
   id="path64"
   inkscape:connector-curvature="0"
   style="fill:#304858" />
<polygon
   class="st3"
   points="170.62,391.98 164.7,371.77 157.86,391.98 "
   id="polygon66"
   style="fill:#77954a"
   transform="translate(-39.689,-313.81898)" />
<polygon
   class="st3"
   points="76.05,388.8 70.13,368.58 63.29,388.8 "
   id="polygon68"
   style="fill:#77954a"
   transform="translate(-39.689,-313.81898)" />
<polygon
   class="st4"
   points="147.95,390.12 143.66,375.48 138.7,390.12 "
   id="polygon70"
   style="fill:#ffffff;stroke:#000000;stroke-width:0.40310001;stroke-miterlimit:10"
   transform="translate(-39.689,-313.81898)" />
<polygon
   class="st4"
   points="142.4,393.56 138.11,378.92 133.16,393.56 "
   id="polygon72"
   style="fill:#ffffff;stroke:#000000;stroke-width:0.40310001;stroke-miterlimit:10"
   transform="translate(-39.689,-313.81898)" />
<polygon
   class="st3"
   points="60.82,393.01 53.63,368.44 45.32,393.01 "
   id="polygon74"
   style="fill:#77954a"
   transform="translate(-39.689,-313.81898)" />
<polygon
   class="st3"
   points="93.46,393.33 85.38,364.05 76.05,393.33 "
   id="polygon76"
   style="fill:#77954a"
   transform="translate(-39.689,-313.81898)" />
<polygon
   class="st3"
   points="198.03,394.56 191.54,371.04 184.04,394.56 "
   id="polygon78"
   style="fill:#77954a"
   transform="translate(-39.689,-313.81898)" />
<polygon
   class="st3"
   points="207.07,398.31 202.34,381.15 196.87,398.31 "
   id="polygon80"
   style="fill:#77954a"
   transform="translate(-39.689,-313.81898)" />
<polygon
   class="st3"
   points="161.81,395.83 153.23,366.54 143.32,395.83 "
   id="polygon82"
   style="fill:#77954a"
   transform="translate(-39.689,-313.81898)" />
<path
   class="st5"
   d="m 61.861,113.95102 c 0,0 19.26,4.91 55.74,-1.96"
   id="path84"
   inkscape:connector-curvature="0"
   style="fill:none;stroke:#000000;stroke-width:0.95719999;stroke-miterlimit:10" />
<path
   class="st6"
   d="m 85.071,25.581018 c -0.25,0.06 -1.99,1.21 -3.6,1.09 -1.34,-0.11 -2.62,-1.49 -2.62,-1.49 0,0 -1.33,-1.51 -2.1,-1.31 -0.41,0.1 -1.25,1.15 -1.25,1.15 0,0 -3.07,-1.01 -4.41,-1.86 -1.49,-0.95 -4.78,0.89 -6.28,0.4 -0.75,-0.24 -1.59,-2.02 -2.35,-2.13 -1.57,-1.44 -3.71,-0.95 -3.71,-0.95 0,0 1.29,-3.31 3.74,-4.49 1.22,-0.84 2.05,-2.8 4.72,-3.76 0,0 1.98,-1.34 4.92,2.22 0,0 1.76,1.89 2.57,3.24 1.4,1.31 0.98,1.54 2.73,2.32 1.18,0.52 1.4,-0.17 2.97,0 1.57,0.17 3.22,2.25 2.96,3.14 0.43,1.31 1.71,2.43 1.71,2.43 z"
   id="path86"
   inkscape:connector-curvature="0"
   style="fill:#ffffff" />
<path
   class="st7"
   d="m 124.781,88.861018 c 2.06,28.700002 3.98,36.850002 14.47,43.820002 4.76,4.81 10.91,9.53 11.52,12.82 -20.09,22.08 -41.06,26.84 -62.76,27.21 -20.13,-0.12 -47.06,-8.65 -62.45,-27.5 1.64,-5.64 9.76,-12.5 12.89,-14.44 11.03,-6.84 13.05,-12.51 14.52,-41.910002 5.8,-24.25 24.45,-31.18 35.32,-31.18 8.31,0 29.88,3.72 36.49,31.18 z"
   id="path88"
   inkscape:connector-curvature="0"
   style="stroke:#3e7f9e;stroke-width:1.91439998;stroke-miterlimit:10" />
<path
   class="st6"
   d="m 52.191,163.60102 c 0,0 11.78,-33.26 37.16,-32.83 25.38,0.43 33.83,31.33 34.57,33.81 -4.43,2.86 -22.51,7.69 -35.86,7.08 -12.19,0.05 -24.67,-3.14 -35.87,-8.06 z"
   id="path90"
   inkscape:connector-curvature="0"
   style="fill:#ffffff" />
<path
   class="st6"
   d="m 95.021,105.21102 c 0,0 -5.3,-15.350002 5.43,-19.720002 10.36,-1.25 14.67,18.690002 7.16,27.910002 z"
   id="path92"
   inkscape:connector-curvature="0"
   style="fill:#ffffff" />
<path
   class="st6"
   d="m 84.491,104.39102 c 0,0 5.24,-16.370002 -5.62,-19.290002 -13.21,0 -13.08,17.030002 -7.11,25.590002 z"
   id="path94"
   inkscape:connector-curvature="0"
   style="fill:#ffffff" />
<ellipse
   class="st8"
   cx="77.420998"
   cy="100.13103"
   rx="5.0799999"
   ry="7.1500001"
   id="ellipse96"
   style="stroke:#000000;stroke-width:0.99989998;stroke-miterlimit:10" />
<ellipse
   class="st8"
   cx="102.561"
   cy="101.77101"
   rx="5.0799999"
   ry="7.1500001"
   id="ellipse98"
   style="stroke:#000000;stroke-width:0.99989998;stroke-miterlimit:10" />
<path
   class="st9"
   d="m 63.041,115.98102 c 0,0 4.81,-3 8.72,-5.29 3.91,-2.29 14,-12.070002 30.96,-1.41 0,0 7.8,5.43 11.72,6.7 0,0 3.74,3.03 1.05,9.42 -1.18,2.8 -5.07,3.09 -9.44,7.14 0,0 -6.46,5.3 -18.38,6.08 -0.38,0.02 -10.29,-0.18 -16.76,-6.45 0,0 -4.11,-4.16 -9.29,-7.55 -1.38,-3.1 -0.81,-6.16 1.42,-8.64 z"
   id="path100"
   inkscape:connector-curvature="0"
   style="fill:#e9b547;stroke:#000000;stroke-width:0.8915;stroke-miterlimit:10" />
<path
   class="st10"
   d="m 112.141,120.64102 c 0,0 -6.83,2.51 -12.05,6.27 0,0 -7.93,7.58 -21.94,1.49 -3.99,-1.74 -7.86,-7.87 -12.5,-7.15"
   id="path102"
   inkscape:connector-curvature="0"
   style="fill:none;stroke:#000000;stroke-width:1.57319999;stroke-miterlimit:10" />
<path
   d="m 92.671,108.13102 c 0,0 2.46,-0.43 2.89,1.45 0,0 0.29,1.01 -2.03,0 -2.32,-1.01 -0.86,-1.45 -0.86,-1.45 z"
   id="path104"
   inkscape:connector-curvature="0" />
<path
   d="m 84.461,107.97102 c 0,0 -0.03,2.48 -1.88,2.11 -1.49,-0.3 -0.44,-1.26 -0.44,-1.26 0,0 0.17,-0.73 2.32,-0.85 z"
   id="path106"
   inkscape:connector-curvature="0" />
<polygon
   class="st6"
   points="72.98,414.96 63.86,394.71 63.86,414.96 "
   id="polygon108"
   style="fill:#ffffff"
   transform="translate(-39.689,-313.81898)" />
<polygon
   class="st6"
   points="57.81,414.96 62.7,397.36 62.7,414.96 "
   id="polygon110"
   style="fill:#ffffff"
   transform="translate(-39.689,-313.81898)" />
<polygon
   class="st11"
   points="72.4,417.65 58.77,417.65 57.04,415.92 73.46,415.92 "
   id="polygon112"
   style="fill:#e9b547"
   transform="translate(-39.689,-313.81898)" />
<polygon
   class="st6"
   points="202.34,432 191.33,407.55 191.33,432 "
   id="polygon114"
   style="fill:#ffffff"
   transform="translate(-39.689,-313.81898)" />
<polygon
   class="st6"
   points="184.04,432 189.94,410.75 189.94,432 "
   id="polygon116"
   style="fill:#ffffff"
   transform="translate(-39.689,-313.81898)" />
<polygon
   class="st11"
   points="201.64,435.24 185.19,435.24 183.11,433.15 202.92,433.15 "
   id="polygon118"
   style="fill:#e9b547"
   transform="translate(-39.689,-313.81898)" />
</svg>